<svg width="19" height="22" viewBox="0 0 19 22" fill="none" xmlns="http://www.w3.org/2000/svg">
<path d="M8.56402 3.61728V13.8513H7.38714C4.06295 13.8473 1.3623 16.253 1.3623 19.2221H9.30319H9.73265H17.0252C17.4299 19.2221 17.7644 18.9024 17.7644 18.5068V3.61728C17.7644 3.22566 17.434 2.90198 17.0252 2.90198H11.5909L8.56402 3.61728Z" fill="#836F5A"/>
<path opacity="0.42" d="M17.0252 2.90198H16.2282V17.0282C16.2282 17.4199 15.8979 17.7435 15.4891 17.7435H8.20064H7.77117H1.59355C1.44489 18.2111 1.3623 18.7106 1.3623 19.2221H9.30319H9.73265H17.0252C17.4299 19.2221 17.7644 18.9024 17.7644 18.5068V3.61728C17.7603 3.22167 17.4299 2.90198 17.0252 2.90198Z" fill="#564A3D"/>
<path d="M17.7519 4.48444V3.61728C17.7519 3.22566 17.4215 2.90198 17.0127 2.90198H11.5825L8.55566 3.61728V4.48044C11.0003 4.47645 15.968 4.48444 17.7519 4.48444Z" fill="#564A3D"/>
<path d="M11.5908 13.8354H8.55566V1.15968H9.90599C10.8392 1.15968 11.5908 1.89097 11.5908 2.7901V13.8354Z" fill="#836F5A"/>
<path d="M9.90598 1.15968H8.89014C9.82339 1.15968 10.5749 1.89097 10.5749 2.7901V13.8354H11.5908V2.7901C11.5908 1.89097 10.8351 1.15968 9.90598 1.15968Z" fill="#836F5A"/>
<path d="M0.490967 19.2221V21.0044H3.35679L3.78212 20.5408L4.19093 21.0044H6.54471L6.97004 20.4849L7.42427 21.0044H10.2942V20.365H12.3259V21.0044H18.5035V19.2221H0.490967Z" fill="#564A3D"/>
<path d="M6.97004 19.9174L6.54471 20.4369H4.19093L3.78212 19.9733L3.35679 20.4369H0.490967V21.0403H3.35679L3.78212 20.5768L4.19093 21.0403H6.54471L6.97004 20.5208L7.42427 21.0403H10.2942V20.4369H7.42427L6.97004 19.9174Z" fill="#564A3D"/>
<path d="M18.5035 20.4369H12.3259V21.0403H18.5035V20.4369Z" fill="#564A3D"/>
<path d="M12.33 19.7975H10.2942V20.4009H12.33V19.7975Z" fill="#564A3D"/>
<path d="M14.7417 16.6406C15.7269 16.6406 16.5256 15.8677 16.5256 14.9143C16.5256 13.9609 15.7269 13.188 14.7417 13.188C13.7564 13.188 12.9578 13.9609 12.9578 14.9143C12.9578 15.8677 13.7564 16.6406 14.7417 16.6406Z" fill="#564A3D"/>
<path d="M14.7417 15.5737C15.118 15.5737 15.423 15.2785 15.423 14.9143C15.423 14.5501 15.118 14.2549 14.7417 14.2549C14.3654 14.2549 14.0603 14.5501 14.0603 14.9143C14.0603 15.2785 14.3654 15.5737 14.7417 15.5737Z" fill="#836F5A"/>
<path d="M18.5034 18.9184H17.9872C18.045 18.7945 18.0739 18.6546 18.0739 18.5108V3.61727C18.0739 3.05382 17.599 2.59826 17.0209 2.59826H11.8963C11.7972 1.61921 10.9424 0.851959 9.90591 0.851959H8.55559C8.38215 0.851959 8.23762 0.987827 8.23762 1.15966V4.82809H7.48607C7.31263 4.82809 7.1681 4.96396 7.1681 5.13579C7.1681 5.30763 7.3085 5.44349 7.48607 5.44349H8.23762V7.05393H7.48607C7.31263 7.05393 7.1681 7.1898 7.1681 7.36163C7.1681 7.53346 7.3085 7.66933 7.48607 7.66933H8.23762V9.27976H7.48607C7.31263 9.27976 7.1681 9.41563 7.1681 9.58746C7.1681 9.7593 7.3085 9.89516 7.48607 9.89516H8.23762V11.5056H7.48607C7.31263 11.5056 7.1681 11.6415 7.1681 11.8133C7.1681 11.9851 7.3085 12.121 7.48607 12.121H8.23762V13.5556H7.38696C4.00496 13.5556 1.23411 15.9413 1.05242 18.9304H0.490817C0.317382 18.9304 0.172852 19.0662 0.172852 19.2381V21.0203C0.172852 21.1882 0.313252 21.328 0.490817 21.328H3.35664C3.44749 21.328 3.5342 21.2921 3.59202 21.2241L3.77784 21.0243L3.95128 21.2202C4.01322 21.2881 4.09994 21.328 4.19078 21.328H6.54456C6.63953 21.328 6.73451 21.2841 6.79232 21.2122L6.97815 20.9844L7.18462 21.2202C7.24656 21.2881 7.33328 21.328 7.42825 21.328H10.2982C10.4716 21.328 10.6162 21.1922 10.6162 21.0203V20.6727H12.016V21.0084C12.016 21.1762 12.1564 21.3161 12.334 21.3161H18.5116C18.6851 21.3161 18.8296 21.1802 18.8296 21.0084V19.2261C18.8213 19.0543 18.6809 18.9184 18.5034 18.9184ZM17.4462 3.61727V4.18072C16.9177 4.18072 15.8027 4.17673 14.6878 4.17273C13.7917 4.17273 13.0814 4.17273 12.5653 4.17273C12.301 4.17273 12.078 4.17273 11.9087 4.17673V3.20967H17.025C17.2563 3.20967 17.4462 3.38949 17.4462 3.61727ZM11.2769 9.88318V11.4936H8.88181V9.88318H11.2769ZM8.88181 9.27177V7.66134H11.2769V9.27177H8.88181ZM11.2769 7.04993H8.88181V5.4395H11.2769V7.04993ZM8.88181 12.105H11.2769V13.5276H8.88181V12.105ZM9.90591 1.46336C10.6616 1.46336 11.2769 2.05879 11.2769 2.79007V4.8241H8.88181V3.61727C8.88181 3.59329 8.87768 3.56932 8.87355 3.54534V1.46736H9.90591V1.46336ZM7.38696 14.155H8.56385C8.59275 14.155 8.62166 14.151 8.64643 14.143H11.5907C11.7642 14.143 11.9087 14.0072 11.9087 13.8353V4.78813C12.7841 4.78014 15.4517 4.78813 17.4462 4.79213V18.5108C17.4462 18.7346 17.2563 18.9184 17.025 18.9184H1.68835C1.87005 16.265 4.35596 14.155 7.38696 14.155ZM18.1895 20.7007H12.6437V20.365C12.6437 20.1971 12.5033 20.0573 12.3258 20.0573H10.2899C10.1165 20.0573 9.97198 20.1931 9.97198 20.365V20.7007H7.56865L7.20939 20.2851C7.14745 20.2131 7.05661 20.1732 6.96163 20.1772C6.86665 20.1772 6.7758 20.2211 6.71799 20.2931L6.38764 20.7007H4.33531L4.02148 20.345C3.96366 20.2771 3.87695 20.2371 3.78197 20.2371C3.78197 20.2371 3.78197 20.2371 3.77784 20.2371C3.68699 20.2371 3.60028 20.2731 3.54246 20.341L3.21211 20.7007H0.804654V19.5298H1.36213H17.0209H18.1854V20.7007H18.1895Z" fill="black"/>
<path d="M14.7418 12.8842C13.5855 12.8842 12.6399 13.7954 12.6399 14.9183C12.6399 16.0372 13.5814 16.9523 14.7418 16.9523C15.9021 16.9523 16.8436 16.0412 16.8436 14.9183C16.8436 13.7954 15.898 12.8842 14.7418 12.8842ZM14.7418 16.3369C13.9324 16.3369 13.2758 15.7015 13.2758 14.9183C13.2758 14.135 13.9324 13.4996 14.7418 13.4996C15.5511 13.4996 16.2077 14.135 16.2077 14.9183C16.2077 15.6975 15.5511 16.3369 14.7418 16.3369Z" fill="black"/>
<path d="M14.7418 13.9472C14.1925 13.9472 13.7424 14.3828 13.7424 14.9143C13.7424 15.4458 14.1925 15.8814 14.7418 15.8814C15.291 15.8814 15.7411 15.4458 15.7411 14.9143C15.7411 14.3828 15.291 13.9472 14.7418 13.9472ZM14.7418 15.2699C14.5394 15.2699 14.3742 15.1101 14.3742 14.9143C14.3742 14.7185 14.5394 14.5586 14.7418 14.5586C14.9441 14.5586 15.1093 14.7185 15.1093 14.9143C15.1093 15.1101 14.9441 15.2699 14.7418 15.2699Z" fill="black"/>
</svg>
