<svg width="19" height="21" viewBox="0 0 19 21" fill="none" xmlns="http://www.w3.org/2000/svg">
<g opacity="0.3">
<path d="M8.38336 3.13819V13.3722H7.20647C3.88229 13.3682 1.18164 15.7739 1.18164 18.743H9.12253H9.55199H16.8446C17.2492 18.743 17.5837 18.4233 17.5837 18.0277V3.13819C17.5837 2.74657 17.2534 2.42288 16.8446 2.42288H11.4102L8.38336 3.13819Z" fill="#836F5A"/>
<path opacity="0.42" d="M16.8446 2.42288H16.0476V16.5491C16.0476 16.9408 15.7172 17.2644 15.3084 17.2644H8.01997H7.59051H1.41289C1.26423 17.732 1.18164 18.2315 1.18164 18.743H9.12253H9.55199H16.8446C17.2492 18.743 17.5837 18.4233 17.5837 18.0277V3.13819C17.5796 2.74257 17.2492 2.42288 16.8446 2.42288Z" fill="#564A3D"/>
<path d="M17.5712 4.00534V3.13819C17.5712 2.74657 17.2409 2.42288 16.8321 2.42288H11.4019L8.375 3.13819V4.00135C10.8196 3.99735 15.7873 4.00534 17.5712 4.00534Z" fill="#564A3D"/>
<path d="M11.4101 13.3562H8.375V0.680573H9.72532C10.6586 0.680573 11.4101 1.41186 11.4101 2.31099V13.3562Z" fill="#836F5A"/>
<path d="M9.72531 0.680573H8.70947C9.64272 0.680573 10.3943 1.41186 10.3943 2.31099V13.3562H11.4101V2.31099C11.4101 1.41186 10.6544 0.680573 9.72531 0.680573Z" fill="#836F5A"/>
<path d="M0.310303 18.743V20.5253H3.17612L3.60145 20.0617L4.01027 20.5253H6.36404L6.78937 20.0058L7.24361 20.5253H10.1136V19.8859H12.1452V20.5253H18.3229V18.743H0.310303Z" fill="#564A3D"/>
<path d="M6.78937 19.4383L6.36404 19.9578H4.01027L3.60145 19.4943L3.17612 19.9578H0.310303V20.5612H3.17612L3.60145 20.0977L4.01027 20.5612H6.36404L6.78937 20.0417L7.24361 20.5612H10.1136V19.9578H7.24361L6.78937 19.4383Z" fill="#564A3D"/>
<path d="M18.3229 19.9579H12.1453V20.5613H18.3229V19.9579Z" fill="#564A3D"/>
<path d="M12.1496 19.3185H10.1138V19.9219H12.1496V19.3185Z" fill="#564A3D"/>
<path d="M14.561 16.1615C15.5462 16.1615 16.3449 15.3886 16.3449 14.4352C16.3449 13.4818 15.5462 12.7089 14.561 12.7089C13.5758 12.7089 12.7771 13.4818 12.7771 14.4352C12.7771 15.3886 13.5758 16.1615 14.561 16.1615Z" fill="#564A3D"/>
<path d="M14.561 15.0946C14.9373 15.0946 15.2423 14.7994 15.2423 14.4352C15.2423 14.0711 14.9373 13.7758 14.561 13.7758C14.1847 13.7758 13.8796 14.0711 13.8796 14.4352C13.8796 14.7994 14.1847 15.0946 14.561 15.0946Z" fill="#836F5A"/>
<path d="M18.323 18.4393H17.8068C17.8646 18.3154 17.8935 18.1755 17.8935 18.0317V3.13814C17.8935 2.57469 17.4186 2.11914 16.8405 2.11914H11.7159C11.6168 1.14009 10.762 0.372833 9.72549 0.372833H8.37517C8.20173 0.372833 8.0572 0.508701 8.0572 0.680534V4.34897H7.30565C7.13221 4.34897 6.98768 4.48483 6.98768 4.65667C6.98768 4.8285 7.12808 4.96437 7.30565 4.96437H8.0572V6.5748H7.30565C7.13221 6.5748 6.98768 6.71067 6.98768 6.8825C6.98768 7.05434 7.12808 7.1902 7.30565 7.1902H8.0572V8.80064H7.30565C7.13221 8.80064 6.98768 8.93651 6.98768 9.10834C6.98768 9.28017 7.12808 9.41604 7.30565 9.41604H8.0572V11.0265H7.30565C7.13221 11.0265 6.98768 11.1623 6.98768 11.3342C6.98768 11.506 7.12808 11.6419 7.30565 11.6419H8.0572V13.0765H7.20654C3.82454 13.0765 1.05369 15.4622 0.871999 18.4513H0.310397C0.136962 18.4513 -0.00756836 18.5871 -0.00756836 18.759V20.5412C-0.00756836 20.7091 0.132832 20.8489 0.310397 20.8489H3.17622C3.26707 20.8489 3.35378 20.813 3.4116 20.745L3.59742 20.5452L3.77086 20.741C3.8328 20.809 3.91952 20.8489 4.01036 20.8489H6.36414C6.45911 20.8489 6.55409 20.805 6.6119 20.733L6.79773 20.5053L7.0042 20.741C7.06614 20.809 7.15286 20.8489 7.24783 20.8489H10.1178C10.2912 20.8489 10.4358 20.7131 10.4358 20.5412V20.1936H11.8356V20.5292C11.8356 20.6971 11.976 20.8369 12.1536 20.8369H18.3312C18.5046 20.8369 18.6492 20.7011 18.6492 20.5292V18.747C18.6409 18.5751 18.5005 18.4393 18.323 18.4393ZM17.2658 3.13814V3.7016C16.7373 3.7016 15.6223 3.6976 14.5074 3.6936C13.6113 3.6936 12.901 3.6936 12.3848 3.6936C12.1206 3.6936 11.8976 3.6936 11.7283 3.6976V2.73054H16.8446C17.0759 2.73054 17.2658 2.91037 17.2658 3.13814ZM11.0965 9.40405V11.0145H8.70139V9.40405H11.0965ZM8.70139 8.79264V7.18221H11.0965V8.79264H8.70139ZM11.0965 6.57081H8.70139V4.96037H11.0965V6.57081ZM8.70139 11.6259H11.0965V13.0485H8.70139V11.6259ZM9.72549 0.984239C10.4812 0.984239 11.0965 1.57966 11.0965 2.31095V4.34497H8.70139V3.13814C8.70139 3.11417 8.69726 3.09019 8.69313 3.06621V0.988235H9.72549V0.984239ZM7.20654 13.6759H8.38343C8.41233 13.6759 8.44124 13.6719 8.46601 13.6639H11.4103C11.5837 13.6639 11.7283 13.528 11.7283 13.3562V4.30901C12.6037 4.30101 15.2713 4.30901 17.2658 4.313V18.0317C17.2658 18.2554 17.0759 18.4393 16.8446 18.4393H1.50793C1.68963 15.7858 4.17554 13.6759 7.20654 13.6759ZM18.0091 20.2215H12.4633V19.8859C12.4633 19.718 12.3229 19.5782 12.1453 19.5782H10.1095C9.93609 19.5782 9.79156 19.714 9.79156 19.8859V20.2215H7.38823L7.02897 19.8059C6.96703 19.734 6.87619 19.694 6.78121 19.698C6.68623 19.698 6.59538 19.742 6.53757 19.8139L6.20722 20.2215H4.15489L3.84106 19.8659C3.78324 19.7979 3.69653 19.758 3.60155 19.758C3.60155 19.758 3.60155 19.758 3.59742 19.758C3.50657 19.758 3.41986 19.7939 3.36204 19.8619L3.03169 20.2215H0.624234V19.0507H1.18171H16.8405H18.005V20.2215H18.0091Z" fill="black"/>
<path d="M14.5609 12.4052C13.4046 12.4052 12.459 13.3163 12.459 14.4392C12.459 15.5581 13.4005 16.4732 14.5609 16.4732C15.7212 16.4732 16.6627 15.5621 16.6627 14.4392C16.6627 13.3163 15.7171 12.4052 14.5609 12.4052ZM14.5609 15.8578C13.7515 15.8578 13.0949 15.2224 13.0949 14.4392C13.0949 13.656 13.7515 13.0206 14.5609 13.0206C15.3702 13.0206 16.0268 13.656 16.0268 14.4392C16.0268 15.2184 15.3702 15.8578 14.5609 15.8578Z" fill="black"/>
<path d="M14.5608 13.4681C14.0116 13.4681 13.5615 13.9037 13.5615 14.4352C13.5615 14.9667 14.0116 15.4023 14.5608 15.4023C15.1101 15.4023 15.5602 14.9667 15.5602 14.4352C15.5602 13.9037 15.1101 13.4681 14.5608 13.4681ZM14.5608 14.7909C14.3585 14.7909 14.1933 14.631 14.1933 14.4352C14.1933 14.2394 14.3585 14.0795 14.5608 14.0795C14.7632 14.0795 14.9284 14.2394 14.9284 14.4352C14.9284 14.631 14.7632 14.7909 14.5608 14.7909Z" fill="black"/>
</g>
</svg>
