<svg width="67" height="34" viewBox="0 0 67 34" fill="none" xmlns="http://www.w3.org/2000/svg">
<g clip-path="url(#clip0_2064_502)">
<path d="M36.6946 3.17205C36.2206 3.3856 36.007 3.88042 36.0591 4.66171C36.0799 4.91693 36.1633 5.64613 36.2466 6.27637C36.455 7.79207 36.5123 8.39627 36.5279 9.11505L36.5383 9.71404L35.9133 9.69842C33.184 9.6307 28.1941 9.25048 19.7145 8.46398C10.3547 7.59935 8.07855 7.40143 5.52113 7.23475C4.40128 7.16183 2.57827 7.1462 2.17721 7.2035C1.7449 7.266 1.42196 7.49518 1.22924 7.88062C1.09382 8.15146 1.0782 8.22438 1.0834 8.68795C1.09382 9.26089 1.15632 9.57341 1.70844 11.7193C2.27617 13.9382 2.45326 15.0737 2.45326 16.5113C2.45326 18.4072 2.12512 19.7875 0.932355 22.9803C0.119814 25.1523 0.0364769 25.4284 0.0312683 26.0221C0.0260597 26.4597 0.0364769 26.5118 0.182317 26.7514C0.296907 26.9389 0.411496 27.043 0.614631 27.1472C1.01569 27.3503 1.47405 27.3764 2.91683 27.2722C5.22424 27.1055 7.11495 26.892 16.1987 25.7565C26.9857 24.4075 30.1161 24.0481 33.6632 23.7512C35.0434 23.6366 35.4185 23.6262 35.4185 23.6939C35.4185 23.72 35.3507 24.0116 35.2674 24.3346C35.0851 25.0377 34.8663 25.668 34.3403 27.0326C33.783 28.4754 33.6996 28.7306 33.6632 29.1421C33.6267 29.6005 33.7465 29.8765 34.0746 30.0901C34.2778 30.2255 34.3299 30.2359 34.8403 30.2359C35.507 30.2359 35.9862 30.1213 37.7363 29.5484C44.5231 27.3243 59.503 20.7719 64.5762 17.8082C66.4617 16.704 66.9148 16.131 66.545 15.3393C66.2429 14.683 65.1074 13.9538 62.0083 12.4225C54.7996 8.86504 42.3563 4.00542 38.4082 3.2033C37.6113 3.04183 36.9967 3.03142 36.6946 3.17205Z" fill="white"/>
</g>
<defs>
<clipPath id="clip0_2064_502">
<rect width="66.67" height="33.335" fill="white"/>
</clipPath>
</defs>
</svg>
