<svg width="20" height="20" viewBox="0 0 20 20" fill="none" xmlns="http://www.w3.org/2000/svg">
<g clip-path="url(#clip0_2022_7)">
<path d="M14.4205 5.15738e-06C14.7162 5.15738e-06 15.0132 0.112661 15.2398 0.339808C15.6924 0.792374 15.6924 1.52475 15.2398 1.97731L7.21662 9.99995L15.2398 18.0231C15.6924 18.4757 15.6924 19.2087 15.2398 19.6606C14.7872 20.1132 14.0542 20.1132 13.6018 19.6606L4.76042 10.8193C4.30785 10.3667 4.30785 9.63371 4.76042 9.18179L13.6018 0.339916C13.8276 0.11331 14.124 5.15738e-06 14.4205 5.15738e-06Z" fill="white"/>
</g>
<defs>
<clipPath id="clip0_2022_7">
<rect width="20" height="20" fill="white" transform="matrix(-1 0 0 -1 20 20)"/>
</clipPath>
</defs>
</svg>
