<svg width="1137" height="46" viewBox="0 0 1137 46" fill="none" xmlns="http://www.w3.org/2000/svg">
<path d="M3.04279 20C1.38593 20 0.0427858 21.3431 0.0427856 23C0.0427855 24.6569 1.38593 26 3.04279 26L3.04279 20ZM1136.12 25.1214C1137.29 23.9498 1137.29 22.0503 1136.12 20.8788L1117.03 1.78688C1115.86 0.615308 1113.96 0.615308 1112.79 1.78688C1111.62 2.95846 1111.62 4.85795 1112.79 6.02952L1129.76 23.0001L1112.79 39.9706C1111.62 41.1422 1111.62 43.0417 1112.79 44.2133C1113.96 45.3849 1115.86 45.3849 1117.03 44.2133L1136.12 25.1214ZM3.04279 26L1134 26.0001L1134 20.0001L3.04279 20L3.04279 26Z" fill="#C21E2B"/>
</svg>
